<svg width="105" height="105" viewBox="0 0 105 105" fill="none" xmlns="http://www.w3.org/2000/svg">
<g filter="url(#filter0_dddd_745_4382)">
<rect x="21" y="21" width="64" height="64" rx="8.34783" fill="#EFF1F7"/>
<g filter="url(#filter1_iii_745_4382)">
<path d="M34.3726 38.3218C34.5425 36.6761 35.6215 35.3735 37.2397 35.029C39.7939 34.4852 44.6087 33.832 53.0007 33.832C61.3926 33.832 66.2074 34.4852 68.7616 35.029C70.3798 35.3735 71.4588 36.6762 71.6288 38.3218C71.8807 40.7619 72.1673 45.242 72.1673 52.9987C72.1673 60.7554 71.8807 65.2355 71.6288 67.6756C71.4588 69.3213 70.3798 70.6239 68.7616 70.9684C66.2074 71.5121 61.3926 72.1654 53.0007 72.1654C44.6087 72.1654 39.7939 71.5121 37.2397 70.9684C35.6215 70.6239 34.5425 69.3213 34.3725 67.6756C34.1206 65.2355 33.834 60.7554 33.834 52.9987C33.834 45.242 34.1206 40.7619 34.3726 38.3218Z" fill="#D0E2F3"/>
</g>
<g filter="url(#filter2_i_745_4382)">
<path fill-rule="evenodd" clip-rule="evenodd" d="M71.9352 42.457H34.0664C34.1594 40.6757 34.269 39.326 34.3727 38.3218C34.5427 36.6761 35.6216 35.3735 37.2398 35.029C39.794 34.4852 44.6088 33.832 53.0008 33.832C61.3928 33.832 66.2076 34.4852 68.7618 35.029C70.38 35.3735 71.459 36.6762 71.6289 38.3218C71.7326 39.326 71.8422 40.6757 71.9352 42.457Z" fill="url(#paint0_linear_745_4382)"/>
</g>
<g filter="url(#filter3_i_745_4382)">
<path d="M50.2137 59.58C51.1741 60.0324 51.9949 60.9061 51.7246 61.9326C51.6435 62.2405 51.5184 62.5269 51.3528 62.7556C50.7375 63.6051 49.575 63.6292 48.7092 63.2706C48.3602 63.108 47.9153 62.8821 47.3744 62.593L42.3937 59.9812C41.6236 59.5774 40.8873 59.0172 40.6805 58.1726C40.5888 57.798 40.543 57.3832 40.543 56.9282C40.543 55.8527 40.7816 54.6817 41.7731 54.1907L47.5987 51.1642C48.8847 50.4962 50.6604 50.0967 51.4699 51.2987C51.6736 51.6013 51.7977 51.9655 51.7977 52.4018C51.7977 53.6759 50.9817 54.3557 49.9917 54.8683L44.757 57.0095L50.2137 59.58Z" fill="url(#paint1_linear_745_4382)"/>
<path d="M55.8155 54.1627C54.8392 53.7142 54.0018 52.8312 54.283 51.7942C54.3643 51.4947 54.4876 51.2163 54.6498 50.9923C55.2864 50.1134 56.4708 50.1197 57.3457 50.5316C57.7471 50.6942 58.1746 50.893 58.6283 51.1279L63.586 53.6839C64.3709 54.0886 65.1214 54.6558 65.327 55.5146C65.4154 55.8838 65.4596 56.2918 65.4596 56.7385C65.4596 57.8392 65.2107 58.9459 64.2295 59.476L58.519 62.4828C57.2271 63.1631 55.4149 63.5926 54.6199 62.3679C54.4259 62.069 54.3096 61.7063 54.3096 61.2649C54.3096 59.9881 55.1198 59.314 56.1156 58.7984L61.2456 56.6572L55.8155 54.1627Z" fill="url(#paint2_linear_745_4382)"/>
</g>
</g>
<defs>
<filter id="filter0_dddd_745_4382" x="0" y="0" width="105" height="105" filterUnits="userSpaceOnUse" color-interpolation-filters="sRGB">
<feFlood flood-opacity="0" result="BackgroundImageFix"/>
<feColorMatrix in="SourceAlpha" type="matrix" values="0 0 0 0 0 0 0 0 0 0 0 0 0 0 0 0 0 0 127 0" result="hardAlpha"/>
<feOffset dx="3" dy="3"/>
<feGaussianBlur stdDeviation="8.5"/>
<feColorMatrix type="matrix" values="0 0 0 0 0.822718 0 0 0 0 0.856761 0 0 0 0 0.890804 0 0 0 0.8 0"/>
<feBlend mode="multiply" in2="BackgroundImageFix" result="effect1_dropShadow_745_4382"/>
<feColorMatrix in="SourceAlpha" type="matrix" values="0 0 0 0 0 0 0 0 0 0 0 0 0 0 0 0 0 0 127 0" result="hardAlpha"/>
<feOffset dx="2" dy="2"/>
<feGaussianBlur stdDeviation="1.5"/>
<feColorMatrix type="matrix" values="0 0 0 0 0.822718 0 0 0 0 0.856761 0 0 0 0 0.890804 0 0 0 0.3 0"/>
<feBlend mode="multiply" in2="effect1_dropShadow_745_4382" result="effect2_dropShadow_745_4382"/>
<feColorMatrix in="SourceAlpha" type="matrix" values="0 0 0 0 0 0 0 0 0 0 0 0 0 0 0 0 0 0 127 0" result="hardAlpha"/>
<feOffset dx="-7" dy="-7"/>
<feGaussianBlur stdDeviation="7"/>
<feColorMatrix type="matrix" values="0 0 0 0 1 0 0 0 0 1 0 0 0 0 1 0 0 0 1 0"/>
<feBlend mode="normal" in2="effect2_dropShadow_745_4382" result="effect3_dropShadow_745_4382"/>
<feColorMatrix in="SourceAlpha" type="matrix" values="0 0 0 0 0 0 0 0 0 0 0 0 0 0 0 0 0 0 127 0" result="hardAlpha"/>
<feOffset dx="-1" dy="-1"/>
<feGaussianBlur stdDeviation="2"/>
<feColorMatrix type="matrix" values="0 0 0 0 1 0 0 0 0 1 0 0 0 0 1 0 0 0 0.8 0"/>
<feBlend mode="normal" in2="effect3_dropShadow_745_4382" result="effect4_dropShadow_745_4382"/>
<feBlend mode="normal" in="SourceGraphic" in2="effect4_dropShadow_745_4382" result="shape"/>
</filter>
<filter id="filter1_iii_745_4382" x="32.834" y="31.832" width="40.334" height="41.334" filterUnits="userSpaceOnUse" color-interpolation-filters="sRGB">
<feFlood flood-opacity="0" result="BackgroundImageFix"/>
<feBlend mode="normal" in="SourceGraphic" in2="BackgroundImageFix" result="shape"/>
<feColorMatrix in="SourceAlpha" type="matrix" values="0 0 0 0 0 0 0 0 0 0 0 0 0 0 0 0 0 0 127 0" result="hardAlpha"/>
<feOffset dx="1" dy="1"/>
<feGaussianBlur stdDeviation="1"/>
<feComposite in2="hardAlpha" operator="arithmetic" k2="-1" k3="1"/>
<feColorMatrix type="matrix" values="0 0 0 0 0.534167 0 0 0 0 0.645967 0 0 0 0 0.749167 0 0 0 0.6 0"/>
<feBlend mode="normal" in2="shape" result="effect1_innerShadow_745_4382"/>
<feColorMatrix in="SourceAlpha" type="matrix" values="0 0 0 0 0 0 0 0 0 0 0 0 0 0 0 0 0 0 127 0" result="hardAlpha"/>
<feOffset dx="-1" dy="-2"/>
<feGaussianBlur stdDeviation="1"/>
<feComposite in2="hardAlpha" operator="arithmetic" k2="-1" k3="1"/>
<feColorMatrix type="matrix" values="0 0 0 0 0.533333 0 0 0 0 0.647059 0 0 0 0 0.74902 0 0 0 0.3 0"/>
<feBlend mode="normal" in2="effect1_innerShadow_745_4382" result="effect2_innerShadow_745_4382"/>
<feColorMatrix in="SourceAlpha" type="matrix" values="0 0 0 0 0 0 0 0 0 0 0 0 0 0 0 0 0 0 127 0" result="hardAlpha"/>
<feOffset dx="-1" dy="-2"/>
<feGaussianBlur stdDeviation="1.5"/>
<feComposite in2="hardAlpha" operator="arithmetic" k2="-1" k3="1"/>
<feColorMatrix type="matrix" values="0 0 0 0 1 0 0 0 0 1 0 0 0 0 1 0 0 0 0.4 0"/>
<feBlend mode="screen" in2="effect2_innerShadow_745_4382" result="effect3_innerShadow_745_4382"/>
</filter>
<filter id="filter2_i_745_4382" x="34.0664" y="33.832" width="39.2221" height="9.97794" filterUnits="userSpaceOnUse" color-interpolation-filters="sRGB">
<feFlood flood-opacity="0" result="BackgroundImageFix"/>
<feBlend mode="normal" in="SourceGraphic" in2="BackgroundImageFix" result="shape"/>
<feColorMatrix in="SourceAlpha" type="matrix" values="0 0 0 0 0 0 0 0 0 0 0 0 0 0 0 0 0 0 127 0" result="hardAlpha"/>
<feOffset dx="1.35294" dy="1.35294"/>
<feGaussianBlur stdDeviation="0.676471"/>
<feComposite in2="hardAlpha" operator="arithmetic" k2="-1" k3="1"/>
<feColorMatrix type="matrix" values="0 0 0 0 0 0 0 0 0 0.37028 0 0 0 0 0.74056 0 0 0 0.5 0"/>
<feBlend mode="multiply" in2="shape" result="effect1_innerShadow_745_4382"/>
</filter>
<filter id="filter3_i_745_4382" x="40.543" y="50.2617" width="26.269" height="14.5815" filterUnits="userSpaceOnUse" color-interpolation-filters="sRGB">
<feFlood flood-opacity="0" result="BackgroundImageFix"/>
<feBlend mode="normal" in="SourceGraphic" in2="BackgroundImageFix" result="shape"/>
<feColorMatrix in="SourceAlpha" type="matrix" values="0 0 0 0 0 0 0 0 0 0 0 0 0 0 0 0 0 0 127 0" result="hardAlpha"/>
<feOffset dx="1.35294" dy="1.35294"/>
<feGaussianBlur stdDeviation="0.676471"/>
<feComposite in2="hardAlpha" operator="arithmetic" k2="-1" k3="1"/>
<feColorMatrix type="matrix" values="0 0 0 0 0 0 0 0 0 0.37028 0 0 0 0 0.74056 0 0 0 0.5 0"/>
<feBlend mode="multiply" in2="shape" result="effect1_innerShadow_745_4382"/>
</filter>
<linearGradient id="paint0_linear_745_4382" x1="35.8514" y1="33.832" x2="47.786" y2="55.1802" gradientUnits="userSpaceOnUse">
<stop stop-color="#0050EC"/>
<stop offset="1" stop-color="#39C7EC"/>
</linearGradient>
<linearGradient id="paint1_linear_745_4382" x1="41.7174" y1="50.125" x2="62.6899" y2="65.9931" gradientUnits="userSpaceOnUse">
<stop stop-color="#0050EC"/>
<stop offset="1" stop-color="#39C7EC"/>
</linearGradient>
<linearGradient id="paint2_linear_745_4382" x1="41.7174" y1="50.125" x2="62.6899" y2="65.9931" gradientUnits="userSpaceOnUse">
<stop stop-color="#0050EC"/>
<stop offset="1" stop-color="#39C7EC"/>
</linearGradient>
</defs>
</svg>
