<svg width="105" height="105" viewBox="0 0 105 105" fill="none" xmlns="http://www.w3.org/2000/svg">
<g filter="url(#filter0_dddd_745_4390)">
<rect x="21" y="21" width="64" height="64" rx="8.34783" fill="#EFF1F7"/>
<g filter="url(#filter1_iii_745_4390)">
<path d="M63.4328 45.7468C68.6199 46.943 72.125 51.064 72.125 56.7494C72.125 63.3492 67.4015 67.841 60.8066 68.0964C58.4113 68.1892 55.5063 68.2494 52 68.2494C48.4937 68.2493 45.5887 68.1892 43.1934 68.0964C36.5985 67.841 31.875 63.3492 31.875 56.7493C31.875 51.064 35.3801 46.943 40.5672 45.7468C41.1309 39.8881 45.2035 35.7118 51.3126 35.6684C51.5371 35.6668 51.7662 35.666 52 35.666C52.2338 35.666 52.4629 35.6668 52.6874 35.6684C58.7965 35.7118 62.8691 39.8881 63.4328 45.7468Z" fill="#D0E2F3"/>
</g>
<g filter="url(#filter2_i_745_4390)">
<path fill-rule="evenodd" clip-rule="evenodd" d="M47.503 47.4832C45.9614 48.5664 44.0141 50.1781 42.6806 52.1464C42.0295 53.1075 42.6577 54.2979 43.8102 54.4371C44.8731 54.5655 45.7919 54.6297 45.7919 54.6297L46.1093 61.2427C46.1485 62.0586 46.4022 62.924 47.1947 63.1217C47.4287 63.1801 47.7119 63.2178 48.0528 63.2178C48.467 63.2178 48.7959 63.1622 49.055 63.0814C49.7424 62.8672 49.9734 62.1154 50.0251 61.3972C50.1745 59.3247 50.4333 54.4975 50.1337 48.8313C50.0616 47.4671 48.6207 46.6978 47.503 47.4832ZM55.9158 63.14C57.4574 62.0567 59.4047 60.445 60.7382 58.4767C61.3893 57.5156 60.7611 56.3252 59.6086 56.186C58.5457 56.0576 57.6269 55.9934 57.6269 55.9934L57.3095 49.3804C57.2703 48.5645 57.0166 47.6992 56.224 47.5014C55.9901 47.443 55.7069 47.4053 55.366 47.4053C54.9518 47.4053 54.6229 47.461 54.3638 47.5417C53.6764 47.7559 53.4454 48.5077 53.3937 49.2259C53.2443 51.2984 52.9855 56.1256 53.2851 61.7918C53.3572 63.156 54.7981 63.9254 55.9158 63.14Z" fill="url(#paint0_linear_745_4390)"/>
</g>
<g filter="url(#filter3_i_745_4390)">
<path fill-rule="evenodd" clip-rule="evenodd" d="M72.1779 67.6678C72.7859 66.6969 73.1374 65.5488 73.1374 64.3187C73.1374 60.829 70.3084 58 66.8187 58C63.329 58 60.5 60.829 60.5 64.3187C60.5 67.8084 63.329 70.6374 66.8187 70.6374C68.0455 70.6374 69.1906 70.2878 70.1598 69.6828C70.2149 69.7491 70.2699 69.8153 70.3247 69.8813C70.741 70.3827 71.1519 70.8776 71.595 71.3666C72.2595 72.1 73.2782 72.1795 73.9787 71.4803C74.6792 70.7811 74.5995 69.7641 73.8648 69.1008C73.3749 68.6584 72.8792 68.2482 72.3769 67.8326C72.3107 67.7778 72.2443 67.7229 72.1779 67.6678Z" fill="url(#paint1_linear_745_4390)"/>
</g>
<g filter="url(#filter4_iii_745_4390)">
<circle cx="66.8574" cy="64.457" r="3.9375" fill="#D0E2F3"/>
</g>
</g>
<defs>
<filter id="filter0_dddd_745_4390" x="0" y="0" width="105" height="105" filterUnits="userSpaceOnUse" color-interpolation-filters="sRGB">
<feFlood flood-opacity="0" result="BackgroundImageFix"/>
<feColorMatrix in="SourceAlpha" type="matrix" values="0 0 0 0 0 0 0 0 0 0 0 0 0 0 0 0 0 0 127 0" result="hardAlpha"/>
<feOffset dx="3" dy="3"/>
<feGaussianBlur stdDeviation="8.5"/>
<feColorMatrix type="matrix" values="0 0 0 0 0.822718 0 0 0 0 0.856761 0 0 0 0 0.890804 0 0 0 0.8 0"/>
<feBlend mode="multiply" in2="BackgroundImageFix" result="effect1_dropShadow_745_4390"/>
<feColorMatrix in="SourceAlpha" type="matrix" values="0 0 0 0 0 0 0 0 0 0 0 0 0 0 0 0 0 0 127 0" result="hardAlpha"/>
<feOffset dx="2" dy="2"/>
<feGaussianBlur stdDeviation="1.5"/>
<feColorMatrix type="matrix" values="0 0 0 0 0.822718 0 0 0 0 0.856761 0 0 0 0 0.890804 0 0 0 0.3 0"/>
<feBlend mode="multiply" in2="effect1_dropShadow_745_4390" result="effect2_dropShadow_745_4390"/>
<feColorMatrix in="SourceAlpha" type="matrix" values="0 0 0 0 0 0 0 0 0 0 0 0 0 0 0 0 0 0 127 0" result="hardAlpha"/>
<feOffset dx="-7" dy="-7"/>
<feGaussianBlur stdDeviation="7"/>
<feColorMatrix type="matrix" values="0 0 0 0 1 0 0 0 0 1 0 0 0 0 1 0 0 0 1 0"/>
<feBlend mode="normal" in2="effect2_dropShadow_745_4390" result="effect3_dropShadow_745_4390"/>
<feColorMatrix in="SourceAlpha" type="matrix" values="0 0 0 0 0 0 0 0 0 0 0 0 0 0 0 0 0 0 127 0" result="hardAlpha"/>
<feOffset dx="-1" dy="-1"/>
<feGaussianBlur stdDeviation="2"/>
<feColorMatrix type="matrix" values="0 0 0 0 1 0 0 0 0 1 0 0 0 0 1 0 0 0 0.8 0"/>
<feBlend mode="normal" in2="effect3_dropShadow_745_4390" result="effect4_dropShadow_745_4390"/>
<feBlend mode="normal" in="SourceGraphic" in2="effect4_dropShadow_745_4390" result="shape"/>
</filter>
<filter id="filter1_iii_745_4390" x="30.875" y="33.666" width="42.25" height="35.584" filterUnits="userSpaceOnUse" color-interpolation-filters="sRGB">
<feFlood flood-opacity="0" result="BackgroundImageFix"/>
<feBlend mode="normal" in="SourceGraphic" in2="BackgroundImageFix" result="shape"/>
<feColorMatrix in="SourceAlpha" type="matrix" values="0 0 0 0 0 0 0 0 0 0 0 0 0 0 0 0 0 0 127 0" result="hardAlpha"/>
<feOffset dx="1" dy="1"/>
<feGaussianBlur stdDeviation="1"/>
<feComposite in2="hardAlpha" operator="arithmetic" k2="-1" k3="1"/>
<feColorMatrix type="matrix" values="0 0 0 0 0.534167 0 0 0 0 0.645967 0 0 0 0 0.749167 0 0 0 0.6 0"/>
<feBlend mode="normal" in2="shape" result="effect1_innerShadow_745_4390"/>
<feColorMatrix in="SourceAlpha" type="matrix" values="0 0 0 0 0 0 0 0 0 0 0 0 0 0 0 0 0 0 127 0" result="hardAlpha"/>
<feOffset dx="-1" dy="-2"/>
<feGaussianBlur stdDeviation="1"/>
<feComposite in2="hardAlpha" operator="arithmetic" k2="-1" k3="1"/>
<feColorMatrix type="matrix" values="0 0 0 0 0.533333 0 0 0 0 0.647059 0 0 0 0 0.74902 0 0 0 0.3 0"/>
<feBlend mode="normal" in2="effect1_innerShadow_745_4390" result="effect2_innerShadow_745_4390"/>
<feColorMatrix in="SourceAlpha" type="matrix" values="0 0 0 0 0 0 0 0 0 0 0 0 0 0 0 0 0 0 127 0" result="hardAlpha"/>
<feOffset dx="-1" dy="-2"/>
<feGaussianBlur stdDeviation="1.5"/>
<feComposite in2="hardAlpha" operator="arithmetic" k2="-1" k3="1"/>
<feColorMatrix type="matrix" values="0 0 0 0 1 0 0 0 0 1 0 0 0 0 1 0 0 0 0.4 0"/>
<feBlend mode="screen" in2="effect2_innerShadow_745_4390" result="effect3_innerShadow_745_4390"/>
</filter>
<filter id="filter2_i_745_4390" x="42.418" y="47.168" width="19.935" height="17.6401" filterUnits="userSpaceOnUse" color-interpolation-filters="sRGB">
<feFlood flood-opacity="0" result="BackgroundImageFix"/>
<feBlend mode="normal" in="SourceGraphic" in2="BackgroundImageFix" result="shape"/>
<feColorMatrix in="SourceAlpha" type="matrix" values="0 0 0 0 0 0 0 0 0 0 0 0 0 0 0 0 0 0 127 0" result="hardAlpha"/>
<feOffset dx="1.35294" dy="1.35294"/>
<feGaussianBlur stdDeviation="0.676471"/>
<feComposite in2="hardAlpha" operator="arithmetic" k2="-1" k3="1"/>
<feColorMatrix type="matrix" values="0 0 0 0 0 0 0 0 0 0.37028 0 0 0 0 0.74056 0 0 0 0.5 0"/>
<feBlend mode="multiply" in2="shape" result="effect1_innerShadow_745_4390"/>
</filter>
<filter id="filter3_i_745_4390" x="60.5" y="58" width="15.3158" height="15.3158" filterUnits="userSpaceOnUse" color-interpolation-filters="sRGB">
<feFlood flood-opacity="0" result="BackgroundImageFix"/>
<feBlend mode="normal" in="SourceGraphic" in2="BackgroundImageFix" result="shape"/>
<feColorMatrix in="SourceAlpha" type="matrix" values="0 0 0 0 0 0 0 0 0 0 0 0 0 0 0 0 0 0 127 0" result="hardAlpha"/>
<feOffset dx="1.35294" dy="1.35294"/>
<feGaussianBlur stdDeviation="0.676471"/>
<feComposite in2="hardAlpha" operator="arithmetic" k2="-1" k3="1"/>
<feColorMatrix type="matrix" values="0 0 0 0 0 0 0 0 0 0.37028 0 0 0 0 0.74056 0 0 0 0.5 0"/>
<feBlend mode="multiply" in2="shape" result="effect1_innerShadow_745_4390"/>
</filter>
<filter id="filter4_iii_745_4390" x="61.9199" y="58.5195" width="9.875" height="10.875" filterUnits="userSpaceOnUse" color-interpolation-filters="sRGB">
<feFlood flood-opacity="0" result="BackgroundImageFix"/>
<feBlend mode="normal" in="SourceGraphic" in2="BackgroundImageFix" result="shape"/>
<feColorMatrix in="SourceAlpha" type="matrix" values="0 0 0 0 0 0 0 0 0 0 0 0 0 0 0 0 0 0 127 0" result="hardAlpha"/>
<feOffset dx="1" dy="1"/>
<feGaussianBlur stdDeviation="1"/>
<feComposite in2="hardAlpha" operator="arithmetic" k2="-1" k3="1"/>
<feColorMatrix type="matrix" values="0 0 0 0 0.534167 0 0 0 0 0.645967 0 0 0 0 0.749167 0 0 0 0.6 0"/>
<feBlend mode="normal" in2="shape" result="effect1_innerShadow_745_4390"/>
<feColorMatrix in="SourceAlpha" type="matrix" values="0 0 0 0 0 0 0 0 0 0 0 0 0 0 0 0 0 0 127 0" result="hardAlpha"/>
<feOffset dx="-1" dy="-2"/>
<feGaussianBlur stdDeviation="1"/>
<feComposite in2="hardAlpha" operator="arithmetic" k2="-1" k3="1"/>
<feColorMatrix type="matrix" values="0 0 0 0 0.533333 0 0 0 0 0.647059 0 0 0 0 0.74902 0 0 0 0.3 0"/>
<feBlend mode="normal" in2="effect1_innerShadow_745_4390" result="effect2_innerShadow_745_4390"/>
<feColorMatrix in="SourceAlpha" type="matrix" values="0 0 0 0 0 0 0 0 0 0 0 0 0 0 0 0 0 0 127 0" result="hardAlpha"/>
<feOffset dx="-1" dy="-2"/>
<feGaussianBlur stdDeviation="1.5"/>
<feComposite in2="hardAlpha" operator="arithmetic" k2="-1" k3="1"/>
<feColorMatrix type="matrix" values="0 0 0 0 1 0 0 0 0 1 0 0 0 0 1 0 0 0 0.4 0"/>
<feBlend mode="screen" in2="effect2_innerShadow_745_4390" result="effect3_innerShadow_745_4390"/>
</filter>
<linearGradient id="paint0_linear_745_4390" x1="43.2939" y1="47.168" x2="63.5192" y2="56.5693" gradientUnits="userSpaceOnUse">
<stop stop-color="#0050EC"/>
<stop offset="1" stop-color="#39C7EC"/>
</linearGradient>
<linearGradient id="paint1_linear_745_4390" x1="61.1581" y1="58" x2="77.0076" y2="64.4569" gradientUnits="userSpaceOnUse">
<stop stop-color="#0050EC"/>
<stop offset="1" stop-color="#39C7EC"/>
</linearGradient>
</defs>
</svg>
